<svg width="33" height="33" viewBox="0 0 33 33" fill="none" xmlns="http://www.w3.org/2000/svg">
<g id="SVG">
<path id="Vector" d="M19.9938 6.00342H13.3271L9.99382 10.0034H5.99382C5.28657 10.0034 4.60829 10.2844 4.1082 10.7845C3.6081 11.2846 3.32715 11.9628 3.32715 12.6701V24.6701C3.32715 25.3773 3.6081 26.0556 4.1082 26.5557C4.60829 27.0558 5.28657 27.3368 5.99382 27.3368H27.3271C28.0344 27.3368 28.7127 27.0558 29.2128 26.5557C29.7129 26.0556 29.9938 25.3773 29.9938 24.6701V12.6701C29.9938 11.9628 29.7129 11.2846 29.2128 10.7845C28.7127 10.2844 28.0344 10.0034 27.3271 10.0034H23.3271L19.9938 6.00342Z" stroke="#9CA3AF" stroke-width="2.66667" stroke-linecap="round" stroke-linejoin="round"/>
<path id="Vector_2" d="M16.6602 22.0034C18.8693 22.0034 20.6602 20.2126 20.6602 18.0034C20.6602 15.7943 18.8693 14.0034 16.6602 14.0034C14.451 14.0034 12.6602 15.7943 12.6602 18.0034C12.6602 20.2126 14.451 22.0034 16.6602 22.0034Z" stroke="#9CA3AF" stroke-width="2.66667" stroke-linecap="round" stroke-linejoin="round"/>
</g>
</svg>
