<svg width="25" height="24" viewBox="0 0 25 24" fill="none" xmlns="http://www.w3.org/2000/svg">
<path d="M16.9297 21V19C16.9297 17.9391 16.5083 16.9217 15.7581 16.1716C15.008 15.4214 13.9906 15 12.9297 15H6.92969C5.86882 15 4.85141 15.4214 4.10126 16.1716C3.35111 16.9217 2.92969 17.9391 2.92969 19V21" stroke="#16A34A" stroke-width="2" stroke-linecap="round" stroke-linejoin="round"/>
<path d="M9.92969 11C12.1388 11 13.9297 9.20914 13.9297 7C13.9297 4.79086 12.1388 3 9.92969 3C7.72055 3 5.92969 4.79086 5.92969 7C5.92969 9.20914 7.72055 11 9.92969 11Z" stroke="#16A34A" stroke-width="2" stroke-linecap="round" stroke-linejoin="round"/>
<path d="M22.9297 21V19C22.929 18.1137 22.634 17.2528 22.0911 16.5523C21.5481 15.8519 20.7878 15.3516 19.9297 15.13" stroke="#16A34A" stroke-width="2" stroke-linecap="round" stroke-linejoin="round"/>
<path d="M16.9297 3.13C17.7901 3.35031 18.5527 3.85071 19.0973 4.55232C19.6419 5.25392 19.9375 6.11683 19.9375 7.005C19.9375 7.89318 19.6419 8.75608 19.0973 9.45769C18.5527 10.1593 17.7901 10.6597 16.9297 10.88" stroke="#16A34A" stroke-width="2" stroke-linecap="round" stroke-linejoin="round"/>
</svg>
